#!OML:ASF E:\Mandelcareful walks\Project 1\Capture day 1\Session 1\Subject1.ASF
:FULLY-SPECIFIED
:DEGREES
687
root 23.5273 13.5617 10.7625 376.645 38.0061 717.659
lowerback 37.2815 1.6646 -1.13555
upperback 8.11142 1.50398 -4.37807
thorax -9.35698 0.916163 -4.71161
lowerneck -20.627 18.6069 9.2389
upperneck 6.0062 27.4961 -27.6657
head 10.941 11.36 -5.65891
rclavicle -2.38542e-014 4.09496e-014
rhumerus -27.715 30.4263 -90.1564
rradius 43.2577
rwrist -72.5918
rhand 2.17246 -37.5741
rfingers 7.12502
rthumb 27.6695 -785.559
lclavicle -2.38542e-014 4.09496e-014
lhumerus 133.517 -72.3365 -36.2938
lradius 48.0481
lwrist -3.89602
lhand -10.7876 -14.952
lfingers 7.12502
lthumb 15.2251 14.4678
rfemur -36.3447 -9.77623 -5.12045
rtibia 63.031
rfoot -25.1899 -27.6879
rtoes -26.4726
lfemur -70.8498 18.0679 -19.1886
ltibia 86.5998
lfoot -28.1336 11.0379
ltoes -5.69127
688
root 23.6996 13.6554 10.7734 376.233 37.1668 716.379
lowerback 36.5208 2.54547 -2.03167
upperback 8.1026 2.2807 -4.32722
thorax -9.05852 1.27707 -4.46193
lowerneck -20.7926 18.5327 8.78663
upperneck 5.95916 27.3909 -27.3064
head 10.7892 11.3199 -5.50427
rclavicle -1.43125e-014 1.98785e-014
rhumerus -27.893 29.1758 -90.3315
rradius 42.1054
rwrist -71.7673
rhand 3.34748 -37.1702
rfingers 7.12502
rthumb 28.7925 -784.969
lclavicle -1.43125e-014 1.98785e-014
lhumerus 135.271 -71.9939 -38.3796
lradius 48.6355
lwrist -2.3725
lhand -10.8871 -13.3348
lfingers 7.12502
lthumb 15.1292 16.0922
rfemur -36.5853 -9.38338 -3.91928
rtibia 61.4545
rfoot -24.4734 -27.752
rtoes -25.4511
lfemur -69.8987 18.1374 -18.1182
ltibia 86.1623
lfoot -29.0071 10.6262
ltoes -4.00864
689
root 23.8843 13.7185 10.7551 376.172 37.0157 715.477
lowerback 35.6515 2.86057 -2.19641
upperback 8.15546 2.64238 -4.30939
thorax -8.79497 1.43987 -4.44443
lowerneck -20.6081 18.5742 8.99052
upperneck 5.92366 27.4964 -27.7172
head 10.8835 11.3588 -5.64513
rclavicle 1.51076e-014 -4.37326e-015
rhumerus -28.3684 28.1093 -90.3505
rradius 41.9726
rwrist -70.9639
rhand 3.70306 -37.1602
rfingers 7.12502
rthumb 29.1322 -784.901
lclavicle 1.51076e-014 -4.37326e-015
lhumerus 133.944 -72.8497 -36.9244
lradius 48.4848
lwrist -4.562
lhand -7.6241 -14.6139
lfingers 7.12502
lthumb 18.2705 14.5481
rfemur -36.8706 -9.982 -3.03658
rtibia 60.081
rfoot -23.4711 -26.8709
rtoes -26.2499
lfemur -69.5289 17.2494 -17.4804
ltibia 85.8392
lfoot -29.8406 10.6919
ltoes -1.95108
690
root 24.0585 13.7857 10.7496 376.515 37.9267 715.092
lowerback 34.7051 2.4672 -1.85411
upperback 8.23815 2.30823 -4.47709
thorax -8.36941 1.28884 -4.6388
lowerneck -20.3425 18.627 9.23022
upperneck 5.60028 27.5219 -28.1221
head 10.8497 11.3995 -5.81335
rclavicle -3.02153e-014 -1.66979e-014
rhumerus -28.6191 26.91 -90.6557
rradius 42.4484
rwrist -70.0643
rhand 2.89445 -37.9263
rfingers 7.12502
rthumb 28.3597 -785.798
lclavicle -3.02153e-014 -1.66979e-014
lhumerus 134.493 -72.9419 -37.8993
lradius 48.6315
lwrist -4.25472
lhand -7.027 -13.9251
lfingers 7.12502
lthumb 18.8448 15.1821
rfemur -36.7876 -10.9402 -2.42994
rtibia 58.9308
rfoot -23.4896 -25.4201
rtoes -26.4074
lfemur -69.4996 15.4707 -17.2479
ltibia 85.4576
lfoot -30.3928 11.4406
ltoes -1.93108
691
root 24.223 13.8564 10.7354 376.453 38.3132 714.606
lowerback 34.3159 2.34344 -1.83907
upperback 8.26003 2.17884 -4.47188
thorax -8.20946 1.22907 -4.57795
lowerneck -20.3231 18.6828 8.76463
upperneck 5.51219 27.6583 -28.006
head 10.7457 11.4706 -5.67934
rclavicle -2.14687e-014 3.97569e-015
rhumerus -28.412 26.3169 -90.7786
rradius 41.8713
rwrist -69.6773
rhand 2.78901 -38.1002
rfingers 7.12502
rthumb 28.2589 -785.989
lclavicle -2.14687e-014 3.97569e-015
lhumerus 133.82 -72.8029 -37.795
lradius 49.1299
lwrist -3.83597
lhand -6.05017 -13.3898
lfingers 7.12502
lthumb 19.7841 15.6233
rfemur -36.8381 -11.297 -1.87786
rtibia 57.9462
rfoot -23.721 -23.6855
rtoes -25.4021
lfemur -69.0627 14.2867 -17.0272
ltibia 85.0462
lfoot -30.9536 12.1486
ltoes -1.72916
692
root 24.3801 13.9225 10.7197 376.239 38.5269 714.184
lowerback 34.21 2.287 -1.85068
upperback 8.26457 2.10878 -4.48592
thorax -8.1694 1.19671 -4.55697
lowerneck -20.1068 18.7078 8.5556
upperneck 5.52669 27.6924 -27.7939
head 10.6414 11.5122 -5.59099
rclavicle -4.29375e-014 4.53229e-014
rhumerus -27.8624 26.0621 -90.9718
rradius 40.5892
rwrist -69.6217
rhand 3.25728 -37.6301
rfingers 7.12502
rthumb 28.7064 -785.444
lclavicle -4.29375e-014 4.53229e-014
lhumerus 133.178 -72.7165 -37.5418
lradius 49.4097
lwrist -3.8368
lhand -5.17622 -13.3091
lfingers 7.12502
lthumb 20.6241 15.6152
rfemur -37.102 -12.3744 -1.19411
rtibia 57.1888
rfoot -23.1464 -21.8895
rtoes -25.2643
lfemur -68.351 13.3456 -16.8766
ltibia 84.5713
lfoot -31.5115 12.7242
ltoes -1.49293
693
root 24.5298 13.992 10.7074 376.081 38.8725 713.804
lowerback 33.9952 2.08875 -1.43962
upperback 8.32273 1.98581 -4.77899
thorax -8.02369 1.14361 -5.03492
lowerneck -20.0184 18.765 9.09941
upperneck 5.74729 27.6756 -27.7276
head 10.7664 11.4971 -5.65087
rclavicle 1.08934e-013 -5.80451e-014
rhumerus -27.3701 25.1773 -91.4105
rradius 40.0854
rwrist -69.1891
rhand 3.25989 -37.6019
rfingers 7.12502
rthumb 28.7089 -785.415
lclavicle 1.08934e-013 -5.80451e-014
lhumerus 134.366 -72.0242 -39.4501
lradius 49.8216
lwrist -2.43225
lhand -6.36069 -12.8423
lfingers 7.12502
lthumb 19.4856 16.2013
rfemur -37.5338 -12.4179 -0.512607
rtibia 56.6683
rfoot -22.8697 -21.3237
rtoes -26.1331
lfemur -67.6915 12.4531 -16.8276
ltibia 84.0269
lfoot -31.9381 13.5145
ltoes -2.45588
694
root 24.6647 14.0591 10.704 375.983 39.2283 713.521
lowerback 33.7435 1.97614 -1.18419
upperback 8.36506 1.93575 -4.87017
thorax -7.88204 1.12243 -5.24092
lowerneck -19.9486 18.6603 9.2269
upperneck 5.86478 27.5218 -27.7063
head 10.7826 11.4227 -5.70969
rclavicle 9.54166e-015 6.2816e-014
rhumerus -26.9899 24.5551 -91.4938
rradius 40.0357
rwrist -68.6533
rhand 3.0841 -37.6556
rfingers 7.12502
rthumb 28.5409 -785.497
lclavicle 9.54166e-015 6.2816e-014
lhumerus 133.686 -72.1158 -38.9055
lradius 50.0147
lwrist -3.01214
lhand -5.28239 -12.7746
lfingers 7.12502
lthumb 20.5221 16.1607
rfemur -38.1472 -12.5362 0.199732
rtibia 56.4915
rfoot -22.9905 -20.5903
rtoes -26.8306
lfemur -67.0423 11.7496 -16.8921
ltibia 83.4294
lfoot -32.2097 14.0976
ltoes -3.43686
695
root 24.7937 14.1183 10.7087 375.955 39.6574 713.515
lowerback 33.6305 1.88527 -1.40048
upperback 8.30067 1.77053 -4.69972
thorax -7.92671 1.04252 -4.88199
lowerneck -19.6278 18.6204 9.05933
upperneck 5.75036 27.5145 -27.8312
head 10.6872 11.4458 -5.75192
rclavicle -1.02573e-013 7.95139e-014
rhumerus -26.7805 24.6477 -91.3913
rradius 40.0274
rwrist -68.2616
rhand 3.00685 -37.4806
rfingers 7.12502
rthumb 28.4671 -785.335
lclavicle -1.02573e-013 7.95139e-014
lhumerus 132.463 -72.5544 -37.6435
lradius 50.259
lwrist -3.16437
lhand -4.79786 -12.6873
lfingers 7.12502
lthumb 20.9876 16.1971
rfemur -38.6722 -12.6904 0.738727
rtibia 56.6251
rfoot -23.6672 -19.6808
rtoes -26.1693
lfemur -66.2711 11.0751 -17.1837
ltibia 82.8055
lfoot -32.4055 14.353
ltoes -3.62158
696
root 24.9069 14.1737 10.7109 376.026 40.3853 713.693
lowerback 33.7363 1.66805 -1.71723
upperback 8.25579 1.41975 -4.46395
thorax -8.04311 0.878657 -4.33923
lowerneck -19.8291 18.7966 8.99429
upperneck 5.83362 27.8308 -27.9524
head 10.8276 11.55 -5.68194
rclavicle 1.27222e-014 1.59028e-014
rhumerus -26.4714 24.9744 -91.2103
rradius 40.4098
rwrist -67.9973
rhand 2.75442 -37.5485
rfingers 7.12502
rthumb 28.2259 -785.443
lclavicle 1.27222e-014 1.59028e-014
lhumerus 130.62 -72.6013 -35.9498
lradius 50.6484
lwrist -2.89409
lhand -5.21588 -12.5614
lfingers 7.12502
lthumb 20.586 16.3671
rfemur -39.4744 -13.0642 1.38148
rtibia 57.0302
rfoot -23.6243 -19.3697
rtoes -26.5185
lfemur -65.5881 10.416 -17.6257
ltibia 82.1708
lfoot -32.3883 14.4424
ltoes -4.23731
697
root 25.0095 14.2261 10.7154 376.032 40.9818 713.923
lowerback 33.9469 1.48727 -1.76
upperback 8.21684 1.17877 -4.45126
thorax -8.17976 0.768536 -4.22258
lowerneck -20.1794 18.7103 8.96934
upperneck 6.52138 27.759 -27.4079
head 11.0003 11.4486 -5.5087
rclavicle 7.15625e-015 2.06736e-014
rhumerus -26.3009 24.7204 -91.2125
rradius 41.0396
rwrist -67.3307
rhand 2.65844 -37.871
rfingers 7.12502
rthumb 28.1341 -785.78
lclavicle 7.15625e-015 2.06736e-014
lhumerus 129.294 -72.4867 -34.8789
lradius 51.0878
lwrist -3.09684
lhand -4.90463 -12.531
lfingers 7.12502
lthumb 20.885 16.3647
rfemur -40.5136 -13.2777 2.03672
rtibia 57.5844
rfoot -23.2305 -19.1847
rtoes -26.6292
lfemur -64.7685 9.99273 -18.1101
ltibia 81.5204
lfoot -32.3962 14.388
ltoes -5.46091
